# xmcd CD database file
# Copyright (C) 1996 Ti Kan
#
# Track frame offsets:
# 	150
# 	15492
# 	28872
# 	42785
# 	59320
# 	74917
# 	89655
# 	105322
# 	116272
# 	132117
#
# Disc length: 1960 seconds
#
# Revision: 1
# Processed by: cddbd v1.4b41PL1 Copyright (c) Steve Scherf et al.
# Submitted via: DiscPlay 3.3.1
#
DISCID=8207a60a
DTITLE=Stacy Dean Campbell - Lonesome Wins Again
DYEAR=1900
DGENRE=
TTITLE0=Lonesome Wins Again
TTITLE1=A Thousand Times
TTITLE2=Baby Don't You Know
TTITLE3=Rosalee
TTITLE4=That Blue Again
TTITLE5=Poor Man's Rose
TTITLE6=That Ain't No Mountain
TTITLE7=I Won't
TTITLE8=One Little Teardrop
TTITLE9=Would You Run
EXTD=
EXTT0=
EXTT1=
EXTT2=
EXTT3=
EXTT4=
EXTT5=
EXTT6=
EXTT7=
EXTT8=
EXTT9=
PLAYORDER=
